<svg height="512" viewBox="0 0 64 64" width="512" xmlns="http://www.w3.org/2000/svg"><g id="Artificial_Intelligence-Robotics" data-name="Artificial Intelligence-Robotics"><path d="m32 46a3 3 0 0 0 3-3v-6h-2v6a1 1 0 0 1 -2 0v-6h-2v6a3 3 0 0 0 3 3z"/><path d="m41 35a3 3 0 0 0 -3 3h2a1 1 0 0 1 2 0h2a3 3 0 0 0 -3-3z"/><path d="m23 35a3 3 0 0 0 -3 3h2a1 1 0 0 1 2 0h2a3 3 0 0 0 -3-3z"/><path d="m51 30.1v-2.1c0-2.484-4.733-3.822-10-4.472v-2.528h4v-2h-4v-2h4v-2h-4v-2h4v-2h-4v-3a1 1 0 0 0 -1-1h-3v-4h-2v4h-2v-4h-2v4h-2v-4h-2v4h-3a1 1 0 0 0 -1 1v3h-4v2h4v2h-4v2h4v2h-4v2h4v2.528c-5.267.65-10 1.988-10 4.472v2.1a4.995 4.995 0 0 0 .1 9.808 19 19 0 0 0 7.9 13.555v7.537a1 1 0 0 0 1 1h20a1 1 0 0 0 1-1v-7.537a19 19 0 0 0 7.9-13.554 4.995 4.995 0 0 0 .1-9.809zm-26-7.1v-14h14v14zm2 2.16v3.84h2v-3.94q.969-.036 2-.048v3.988h2v-3.989q1.03.014 2 .049v3.94h2v-3.84c7.451.482 11.7 1.964 12 2.84-.357 1.057-6.449 3-17 3-10.595 0-16.692-1.96-17-2.979v-.007c.256-.874 4.509-2.369 12-2.854zm-16 9.84a3 3 0 0 1 2-2.816v5.632a3 3 0 0 1 -2-2.816zm30 25h-18v-5.273a18.954 18.954 0 0 0 18 0zm-9-5a17.019 17.019 0 0 1 -17-17v-7.542c3.7 1.952 11.718 2.542 17 2.542s13.3-.59 17-2.542v7.542a17.019 17.019 0 0 1 -17 17zm19-17.184v-5.632a2.982 2.982 0 0 1 0 5.632z"/><path d="m32 49c-2.71 0-5-1.374-5-3h-2c0 2.8 3.075 5 7 5s7-2.2 7-5h-2c0 1.626-2.29 3-5 3z"/><path d="m59 8a3 3 0 1 0 -3-3 3 3 0 0 0 3 3zm0-4a1 1 0 1 1 -1 1 1 1 0 0 1 1-1z"/><path d="m59 13a3 3 0 1 0 3 3 3 3 0 0 0 -3-3zm0 4a1 1 0 1 1 1-1 1 1 0 0 1 -1 1z"/><path d="m52.414 6h1.586v-2h-2a1 1 0 0 0 -.707.293l-4 4 1.414 1.414z"/><path d="m48 15h6v2h-6z"/><path d="m5 2a3 3 0 1 0 3 3 3 3 0 0 0 -3-3zm0 4a1 1 0 1 1 1-1 1 1 0 0 1 -1 1z"/><path d="m5 13a3 3 0 1 0 3 3 3 3 0 0 0 -3-3zm0 4a1 1 0 1 1 1-1 1 1 0 0 1 -1 1z"/><path d="m15.293 9.707 1.414-1.414-4-4a1 1 0 0 0 -.707-.293h-2v2h1.586z"/><path d="m10 15h6v2h-6z"/><path d="m36 11h-8a1 1 0 0 0 -1 1v8a1 1 0 0 0 1 1h5a1 1 0 0 0 .707-.293l3-3a1 1 0 0 0 .293-.707v-5a1 1 0 0 0 -1-1zm-1 5.586-2.411 2.414h-3.589v-6h6z"/></g></svg>